<?xml version="1.0" encoding="UTF-8"?>
<!DOCTYPE svg PUBLIC "-//W3C//DTD SVG 1.1//EN" "http://www.w3.org/Graphics/SVG/1.1/DTD/svg11.dtd">
<svg xmlns="http://www.w3.org/2000/svg" version="1.1" width="500px" height="500px" style="shape-rendering:geometricPrecision; text-rendering:geometricPrecision; image-rendering:optimizeQuality; fill-rule:evenodd; clip-rule:evenodd" xmlns:xlink="http://www.w3.org/1999/xlink">
<g><path style="opacity:0.877" fill="#fff" d="M 446.5,396.5 C 447.658,395.05 447.158,394.05 445,393.5C 423.196,394.829 401.363,394.829 379.5,393.5C 378.289,394.274 378.289,395.107 379.5,396C 382.034,396.516 384.2,397.683 386,399.5C 386.383,398.944 386.883,398.611 387.5,398.5C 388.683,399.504 390.016,400.338 391.5,401C 400.167,401.333 408.833,401.667 417.5,402C 431.077,406.64 436.91,416.14 435,430.5C 430.433,444.715 420.599,451.381 405.5,450.5C 401.549,464.929 393.549,476.429 381.5,485C 353.659,499.631 329.493,495.131 309,471.5C 304.217,465.264 301.05,458.264 299.5,450.5C 263.5,449.167 227.5,449.167 191.5,450.5C 179.765,486.704 155.432,499.87 118.5,490C 92.4997,477.633 81.6664,457.133 86,428.5C 88.3106,421.223 91.1439,414.223 94.5,407.5C 82.5127,326.089 70.0127,244.755 57,163.5C 45.9095,162.678 34.7429,162.178 23.5,162C 20.804,161.31 18.6374,159.81 17,157.5C 15.3943,145.238 15.061,132.904 16,120.5C 17.2276,116.296 20.0609,114.13 24.5,114C 48.1667,113.333 71.8333,113.333 95.5,114C 101.53,115.357 104.363,119.19 104,125.5C 107.828,148.462 111.328,171.462 114.5,194.5C 134.5,194.5 154.5,194.5 174.5,194.5C 173.481,180.573 170.981,166.906 167,153.5C 154.822,157.57 142.655,157.403 130.5,153C 123.506,148.889 120.839,142.722 122.5,134.5C 122.907,110.117 124.074,85.784 126,61.5C 127,59.8333 128,58.1667 129,56.5C 140.212,46.9531 151.712,37.7864 163.5,29C 167.143,23.34 172.143,19.34 178.5,17C 192.058,10.9022 206.225,7.06885 221,5.5C 227.228,6.24001 233.395,7.40668 239.5,9C 252.554,9.83778 265.554,11.1711 278.5,13C 282.916,15.4117 286.749,18.5783 290,22.5C 303.824,40.8145 317.157,59.4812 330,78.5C 332.651,83.385 332.984,88.385 331,93.5C 322.699,103.787 312.199,110.954 299.5,115C 298.978,115.561 298.645,116.228 298.5,117C 303.991,130.133 309.491,143.299 315,156.5C 316.846,153.431 317.846,150.098 318,146.5C 319,145.5 320,144.5 321,143.5C 326.365,130.052 329.699,116.052 331,101.5C 333.585,96.87 337.585,94.5367 343,94.5C 350.2,95.9014 357.2,97.9014 364,100.5C 372.692,99.7957 379.358,95.7957 384,88.5C 387.532,82.1009 390.532,75.4342 393,68.5C 397.479,64.7573 402.646,63.5906 408.5,65C 420.497,68.6691 430.664,75.1691 439,84.5C 447.082,94.9976 452.749,106.664 456,119.5C 457.037,125.394 456.371,131.061 454,136.5C 442.806,146.84 430.973,156.34 418.5,165C 407.5,174.667 396.5,184.333 385.5,194C 416.5,194.333 447.5,194.667 478.5,195C 482.031,196.529 484.031,199.196 484.5,203C 474.44,264.752 464.94,326.586 456,388.5C 454.962,393.613 451.795,396.28 446.5,396.5 Z M 215.5,25.5 C 234.045,28.5791 252.712,30.7458 271.5,32C 284.5,49.6667 297.5,67.3333 310.5,85C 305.346,89.9954 299.346,93.4954 292.5,95.5C 290.984,85.6419 287.651,76.4753 282.5,68C 270.091,64.077 264.591,68.577 266,81.5C 267.689,88.9211 269.689,96.2545 272,103.5C 284.037,133.738 296.204,163.905 308.5,194C 270.833,194.667 233.167,194.667 195.5,194C 190.082,169.58 184.916,145.08 180,120.5C 177.667,115.167 175.333,109.833 173,104.5C 165.514,99.5647 159.514,100.898 155,108.5C 154.333,110.5 154.333,112.5 155,114.5C 158.323,121.082 159.49,127.916 158.5,135C 152.656,136.657 146.822,136.824 141,135.5C 140.314,114.46 140.98,93.4601 143,72.5C 143.251,70.567 143.751,68.7337 144.5,67C 158.076,57.4275 171.076,47.0942 183.5,36C 193.99,31.5582 204.657,28.0582 215.5,25.5 Z M 420.5,95.5 C 428.552,100.424 428.885,105.424 421.5,110.5C 419.267,105.633 418.934,100.633 420.5,95.5 Z M 399.5,99.5 C 400.278,108.23 401.778,116.896 404,125.5C 379,147.167 354,168.833 329,190.5C 327.83,187.495 326.664,184.495 325.5,181.5C 325.702,179.077 326.869,177.411 329,176.5C 337.428,180.368 342.928,177.868 345.5,169C 345.355,168.228 345.022,167.561 344.5,167C 348.344,164.145 350.177,160.312 350,155.5C 353.819,152.065 355.485,147.731 355,142.5C 359.85,134.031 357.683,128.031 348.5,124.5C 347.233,121.761 347.399,119.094 349,116.5C 358.163,121.299 367.663,121.799 377.5,118C 386.852,114.142 394.185,107.975 399.5,99.5 Z M 34.5,132.5 C 51.1667,132.5 67.8333,132.5 84.5,132.5C 98.1121,217.784 111.445,303.117 124.5,388.5C 119.956,389.188 115.789,390.854 112,393.5C 111.667,392.833 111.333,392.167 111,391.5C 97.8665,310.169 84.8665,228.836 72,147.5C 70.8906,145.185 69.0573,143.685 66.5,143C 55.8385,142.5 45.1719,142.333 34.5,142.5C 34.5,139.167 34.5,135.833 34.5,132.5 Z M 118.5,213.5 C 233.167,213.333 347.834,213.5 462.5,214C 454.119,268.453 445.786,322.953 437.5,377.5C 339.499,377.667 241.499,377.5 143.5,377C 134.192,322.679 125.859,268.179 118.5,213.5 Z M 199.5,242.5 C 208.706,240.674 213.873,244.34 215,253.5C 218.043,281.014 221.21,308.514 224.5,336C 222.955,346.274 217.288,349.607 207.5,346C 205.106,344.048 203.606,341.548 203,338.5C 199.71,310.014 196.543,281.514 193.5,253C 193.494,250.7 193.994,248.534 195,246.5C 196.667,245.267 198.167,243.933 199.5,242.5 Z M 291.5,242.5 C 298.654,241.157 303.487,243.823 306,250.5C 306.667,280.167 306.667,309.833 306,339.5C 304.823,345.175 301.323,348.175 295.5,348.5C 292.219,348.109 289.385,346.776 287,344.5C 285.133,340.381 284.299,336.048 284.5,331.5C 284.024,303.847 284.524,276.18 286,248.5C 287.36,245.977 289.193,243.977 291.5,242.5 Z M 382.5,242.5 C 391.027,240.925 395.694,244.425 396.5,253C 393.48,282.18 390.313,311.347 387,340.5C 381.793,348.577 375.459,349.577 368,343.5C 366.953,340.961 366.453,338.295 366.5,335.5C 369.385,305.702 372.885,276.035 377,246.5C 378.5,244.531 380.333,243.198 382.5,242.5 Z M 170.5,397.5 C 220.332,396.335 270.332,396.168 320.5,397C 318.34,397.996 316.673,399.496 315.5,401.5C 268.832,401.667 222.165,401.5 175.5,401C 173.677,400.003 172.01,398.836 170.5,397.5 Z M 130.5,406.5 C 158.316,404.818 171.816,417.818 171,445.5C 166.828,463.168 155.661,472.834 137.5,474.5C 114.591,471.434 103.425,458.434 104,435.5C 106.925,420.243 115.759,410.577 130.5,406.5 Z M 345.5,406.5 C 372.902,405.256 386.402,418.256 386,445.5C 381.096,465.032 368.596,474.532 348.5,474C 327.727,469.56 317.894,456.726 319,435.5C 322.393,420.621 331.226,410.955 345.5,406.5 Z M 301.5,419.5 C 301.99,422.799 301.323,426.133 299.5,429.5C 263.506,430.5 227.506,430.833 191.5,430.5C 191.121,426.985 190.121,423.652 188.5,420.5C 226.161,419.5 263.827,419.167 301.5,419.5 Z M 402.5,420.5 C 405.976,419.357 409.642,419.19 413.5,420C 417.5,423.333 417.5,426.667 413.5,430C 410.854,430.497 408.187,430.664 405.5,430.5C 405.41,426.786 404.41,423.452 402.5,420.5 Z M 134.5,430.5 C 146.225,430.396 149.725,435.729 145,446.5C 140,451.833 135,451.833 130,446.5C 126.317,439.716 127.817,434.382 134.5,430.5 Z M 349.5,430.5 C 357.326,429.329 361.66,432.662 362.5,440.5C 361.49,446.342 357.99,449.675 352,450.5C 344.453,447.983 341.786,442.983 344,435.5C 345.73,433.598 347.563,431.931 349.5,430.5 Z"/></g>
<g><path style="opacity:0.502" fill="#fff" d="M 403.5,87.5 C 404.947,89.8382 404.447,91.8382 402,93.5C 402.15,91.4944 402.65,89.4944 403.5,87.5 Z"/></g>
<g><path style="opacity:0.141" fill="#fff" d="M 435.5,121.5 C 436.5,121.5 437.5,121.5 438.5,121.5C 438.328,123.492 438.995,125.158 440.5,126.5C 436.095,127.87 432.095,130.036 428.5,133C 403.945,152.548 380.279,173.215 357.5,195C 355.782,195.346 354.115,195.846 352.5,196.5C 351.167,195.833 351.167,195.167 352.5,194.5C 361.019,186.813 369.686,179.313 378.5,172C 376.255,172.195 374.422,173.362 373,175.5C 372.5,175 372,174.5 371.5,174C 373.378,172.457 374.878,170.624 376,168.5C 376.691,170.891 377.691,170.891 379,168.5C 379.423,169.956 380.256,170.456 381.5,170C 397.64,154.183 414.64,139.516 432.5,126C 434.141,124.871 435.141,123.371 435.5,121.5 Z"/></g>
<g><path style="opacity:0.858" fill="#fff" d="M 196.5,222.5 C 216.749,220.194 229.249,228.861 234,248.5C 237,275.5 240,302.5 243,329.5C 245.835,343.98 241.335,355.48 229.5,364C 212.137,371.541 197.97,367.707 187,352.5C 185.798,349.226 184.798,345.893 184,342.5C 180.927,315.842 177.927,289.175 175,262.5C 170.998,242.822 178.164,229.488 196.5,222.5 Z M 199.5,242.5 C 198.167,243.933 196.667,245.267 195,246.5C 193.994,248.534 193.494,250.7 193.5,253C 196.543,281.514 199.71,310.014 203,338.5C 203.606,341.548 205.106,344.048 207.5,346C 217.288,349.607 222.955,346.274 224.5,336C 221.21,308.514 218.043,281.014 215,253.5C 213.873,244.34 208.706,240.674 199.5,242.5 Z"/></g>
<g><path style="opacity:0.843" fill="#fff" d="M 287.5,222.5 C 300.997,220.275 312.164,224.275 321,234.5C 323.66,238.814 325.327,243.481 326,248.5C 326.667,279.5 326.667,310.5 326,341.5C 321.138,361.004 308.638,369.504 288.5,367C 274.254,363.356 266.421,354.19 265,339.5C 264.045,307.799 264.379,276.132 266,244.5C 269.376,233.292 276.543,225.958 287.5,222.5 Z M 291.5,242.5 C 289.193,243.977 287.36,245.977 286,248.5C 284.524,276.18 284.024,303.847 284.5,331.5C 284.299,336.048 285.133,340.381 287,344.5C 289.385,346.776 292.219,348.109 295.5,348.5C 301.323,348.175 304.823,345.175 306,339.5C 306.667,309.833 306.667,280.167 306,250.5C 303.487,243.823 298.654,241.157 291.5,242.5 Z"/></g>
<g><path style="opacity:0.869" fill="#fff" d="M 377.5,222.5 C 400.48,220.126 413.147,230.293 415.5,253C 412.432,282.51 409.266,312.01 406,341.5C 401.145,362.691 387.979,370.858 366.5,366C 353.951,360.442 347.284,350.775 346.5,337C 349.638,305.454 353.138,273.954 357,242.5C 361.08,232.919 367.914,226.252 377.5,222.5 Z M 382.5,242.5 C 380.333,243.198 378.5,244.531 377,246.5C 372.885,276.035 369.385,305.702 366.5,335.5C 366.453,338.295 366.953,340.961 368,343.5C 375.459,349.577 381.793,348.577 387,340.5C 390.313,311.347 393.48,282.18 396.5,253C 395.694,244.425 391.027,240.925 382.5,242.5 Z"/></g>
<g><path style="opacity:0.387" fill="#fff" d="M 315.5,401.5 C 316.673,399.496 318.34,397.996 320.5,397C 270.332,396.168 220.332,396.335 170.5,397.5C 170.103,398.525 169.437,398.692 168.5,398C 167.335,396.916 166.002,396.083 164.5,395.5C 163.479,394.998 163.312,394.332 164,393.5C 218.099,394.165 272.266,394.831 326.5,395.5C 323.36,397.473 320.36,399.64 317.5,402C 316.563,402.692 315.897,402.525 315.5,401.5 Z"/></g>
<g><path style="opacity:0.161" fill="#fff" d="M 446.5,396.5 C 426.497,396.333 406.497,396.5 386.5,397C 387.056,397.383 387.389,397.883 387.5,398.5C 386.883,398.611 386.383,398.944 386,399.5C 384.2,397.683 382.034,396.516 379.5,396C 378.289,395.107 378.289,394.274 379.5,393.5C 401.363,394.829 423.196,394.829 445,393.5C 447.158,394.05 447.658,395.05 446.5,396.5 Z"/></g>
<g><path style="opacity:0.903" fill="#fff" d="M 130.5,411.5 C 158.535,410.57 170.035,423.904 165,451.5C 156.908,466.955 144.408,472.121 127.5,467C 110.593,458.678 105.093,445.512 111,427.5C 115.518,419.67 122.018,414.336 130.5,411.5 Z M 134.5,430.5 C 127.817,434.382 126.317,439.716 130,446.5C 135,451.833 140,451.833 145,446.5C 149.725,435.729 146.225,430.396 134.5,430.5 Z"/></g>
<g><path style="opacity:0.921" fill="#fff" d="M 345.5,411.5 C 371.291,409.791 383.124,421.791 381,447.5C 373.254,466.765 359.421,472.932 339.5,466C 323.973,456.068 319.806,442.568 327,425.5C 331.526,418.505 337.693,413.839 345.5,411.5 Z M 349.5,430.5 C 347.563,431.931 345.73,433.598 344,435.5C 341.786,442.983 344.453,447.983 352,450.5C 357.99,449.675 361.49,446.342 362.5,440.5C 361.66,432.662 357.326,429.329 349.5,430.5 Z"/></g>
<g><path style="opacity:0.048" fill="#fff" d="M 191.5,430.5 C 227.506,430.833 263.506,430.5 299.5,429.5C 301.323,426.133 301.99,422.799 301.5,419.5C 302.829,417.623 304.162,417.456 305.5,419C 304.164,422.684 302.831,426.351 301.5,430C 301.957,430.414 302.291,430.914 302.5,431.5C 301.372,432.262 300.205,432.929 299,433.5C 262.573,432.504 226.073,432.17 189.5,432.5C 189.131,430.007 189.797,429.34 191.5,430.5 Z"/></g>
</svg>
